<?xml version="1.0" standalone="no"?>
<!DOCTYPE svg PUBLIC "-//W3C//DTD SVG 20010904//EN"
 "http://www.w3.org/TR/2001/REC-SVG-20010904/DTD/svg10.dtd">
<svg version="1.0" xmlns="http://www.w3.org/2000/svg"
 width="256.000000pt" height="197.000000pt" viewBox="0 0 256.000000 197.000000"
 preserveAspectRatio="xMidYMid meet">
<metadata>
Created by potrace 1.16, written by Peter Selinger 2001-2019
</metadata>
<g transform="translate(0.000000,197.000000) scale(0.100000,-0.100000)"
fill="#000000" stroke="none">
<path d="M1675 1907 c-21 -32 -41 -56 -44 -54 -195 107 -381 84 -526 -63 l-50
-50 35 7 c19 5 67 8 106 8 61 0 81 -5 145 -37 41 -20 89 -52 106 -70 l33 -34
-35 -51 c-19 -29 -35 -54 -35 -57 0 -4 371 72 376 77 2 1 -14 88 -34 192 l-38
190 -39 -58z"/>
<path d="M304 1562 l-291 -207 294 -3 c161 -1 427 -1 590 0 l297 3 -289 204
c-159 112 -294 205 -300 206 -5 2 -141 -89 -301 -203z"/>
<path d="M1653 1202 l-292 -207 300 -3 c165 -1 433 -1 595 0 l295 3 -295 208
c-162 114 -298 207 -303 207 -4 -1 -139 -94 -300 -208z"/>
<path d="M40 1235 l0 -45 40 0 40 0 0 -183 c0 -165 -2 -186 -18 -200 -10 -10
-28 -17 -40 -17 -21 0 -22 -5 -22 -70 l0 -70 565 0 565 0 0 70 c0 66 -1 70
-22 70 -13 0 -31 7 -40 14 -16 12 -18 34 -18 200 l0 186 40 0 40 0 0 45 0 45
-565 0 -565 0 0 -45z m350 -231 c0 -166 -2 -188 -17 -200 -22 -16 -57 -18 -84
-4 -18 10 -19 23 -19 200 l0 190 60 0 60 0 0 -186z m280 2 c0 -180 -1 -185
-22 -200 -27 -19 -67 -20 -90 -2 -16 12 -18 34 -18 200 l0 186 65 0 65 0 0
-184z m270 2 c0 -155 -2 -184 -17 -200 -20 -22 -70 -23 -95 -1 -16 14 -18 35
-18 200 l0 183 65 0 65 0 0 -182z"/>
<path d="M1390 880 l0 -40 40 0 40 0 0 -189 c0 -185 -1 -190 -22 -205 -12 -9
-30 -16 -40 -16 -16 0 -18 -10 -18 -70 l0 -70 565 0 565 0 0 70 c0 67 -1 70
-23 70 -52 0 -57 21 -57 223 l0 187 40 0 40 0 0 40 0 40 -565 0 -565 0 0 -40z
m350 -227 c0 -159 -2 -189 -17 -205 -20 -22 -61 -23 -85 -1 -16 14 -18 35 -18
205 l0 188 60 0 60 0 0 -187z m278 -3 c2 -182 2 -185 -20 -202 -29 -22 -57
-23 -86 -2 -21 15 -22 20 -22 205 l0 190 63 -3 62 -3 3 -185z m272 3 c0 -159
-2 -189 -17 -205 -22 -24 -62 -23 -90 4 -22 21 -23 26 -23 198 0 97 3 180 7
183 3 4 33 7 65 7 l58 0 0 -187z"/>
<path d="M720 433 c-96 -24 -176 -46 -179 -48 -3 -4 41 -192 80 -339 l10 -38
36 56 c19 31 40 55 47 52 129 -55 278 -61 378 -14 54 25 188 141 176 153 -2 3
-19 0 -37 -6 -17 -6 -68 -9 -114 -8 -92 4 -163 32 -231 92 l-39 33 32 50 c32
53 36 65 24 63 -5 0 -87 -21 -183 -46z"/>
</g>
</svg>
